<svg width="1440" height="936" viewBox="0 0 1440 936" fill="none" xmlns="http://www.w3.org/2000/svg">
<g clip-path="url(#clip0_307_4769)">
<rect y="0.5" width="1440" height="935" fill="url(#paint0_linear_307_4769)"/>
<circle cx="48.5" cy="12" r="2" fill="white" fill-opacity="0.2"/>
<circle cx="127.5" cy="12" r="2" fill="white" fill-opacity="0.2"/>
<circle cx="206.5" cy="12" r="2" fill="white" fill-opacity="0.2"/>
<circle cx="285.5" cy="12" r="2" fill="white" fill-opacity="0.2"/>
<circle cx="364.5" cy="12" r="2" fill="white" fill-opacity="0.2"/>
<circle cx="443.5" cy="12" r="2" fill="white" fill-opacity="0.2"/>
<circle cx="522.5" cy="12" r="2" fill="white" fill-opacity="0.2"/>
<circle cx="601.5" cy="12" r="2" fill="white" fill-opacity="0.2"/>
<circle cx="680.5" cy="12" r="2" fill="white" fill-opacity="0.2"/>
<circle cx="759.5" cy="12" r="2" fill="white" fill-opacity="0.2"/>
<circle cx="838.5" cy="12" r="2" fill="white" fill-opacity="0.2"/>
<circle cx="917.5" cy="12" r="2" fill="white" fill-opacity="0.2"/>
<circle cx="996.5" cy="12" r="2" fill="white" fill-opacity="0.2"/>
<circle cx="1075.5" cy="12" r="2" fill="white" fill-opacity="0.2"/>
<circle cx="1154.5" cy="12" r="2" fill="white" fill-opacity="0.2"/>
<circle cx="1233.5" cy="12" r="2" fill="white" fill-opacity="0.2"/>
<circle cx="1312.5" cy="12" r="2" fill="white" fill-opacity="0.2"/>
<circle cx="1391.5" cy="12" r="2" fill="white" fill-opacity="0.2"/>
<circle cx="48.5" cy="69" r="2" fill="white" fill-opacity="0.2"/>
<circle cx="127.5" cy="69" r="2" fill="white" fill-opacity="0.2"/>
<circle cx="206.5" cy="69" r="2" fill="white" fill-opacity="0.2"/>
<circle cx="285.5" cy="69" r="2" fill="white" fill-opacity="0.2"/>
<circle cx="364.5" cy="69" r="2" fill="white" fill-opacity="0.2"/>
<circle cx="443.5" cy="69" r="2" fill="white" fill-opacity="0.2"/>
<circle cx="522.5" cy="69" r="2" fill="white" fill-opacity="0.2"/>
<circle cx="601.5" cy="69" r="2" fill="white" fill-opacity="0.2"/>
<circle cx="680.5" cy="69" r="2" fill="white" fill-opacity="0.2"/>
<circle cx="759.5" cy="69" r="2" fill="white" fill-opacity="0.2"/>
<circle cx="838.5" cy="69" r="2" fill="white" fill-opacity="0.2"/>
<circle cx="917.5" cy="69" r="2" fill="white" fill-opacity="0.2"/>
<circle cx="996.5" cy="69" r="2" fill="white" fill-opacity="0.2"/>
<circle cx="1075.5" cy="69" r="2" fill="white" fill-opacity="0.2"/>
<circle cx="1154.5" cy="69" r="2" fill="white" fill-opacity="0.2"/>
<circle cx="1233.5" cy="69" r="2" fill="white" fill-opacity="0.2"/>
<circle cx="1312.5" cy="69" r="2" fill="white" fill-opacity="0.2"/>
<circle cx="1391.5" cy="69" r="2" fill="white" fill-opacity="0.2"/>
<circle cx="48.5" cy="126" r="2" fill="white" fill-opacity="0.2"/>
<circle cx="127.5" cy="126" r="2" fill="white" fill-opacity="0.2"/>
<circle cx="206.5" cy="126" r="2" fill="white" fill-opacity="0.2"/>
<circle cx="285.5" cy="126" r="2" fill="white" fill-opacity="0.2"/>
<circle cx="364.5" cy="126" r="2" fill="white" fill-opacity="0.2"/>
<circle cx="443.5" cy="126" r="2" fill="white" fill-opacity="0.2"/>
<circle cx="522.5" cy="126" r="2" fill="white" fill-opacity="0.2"/>
<circle cx="601.5" cy="126" r="2" fill="white" fill-opacity="0.2"/>
<circle cx="680.5" cy="126" r="2" fill="white" fill-opacity="0.2"/>
<circle cx="759.5" cy="126" r="2" fill="white" fill-opacity="0.2"/>
<circle cx="838.5" cy="126" r="2" fill="white" fill-opacity="0.2"/>
<circle cx="917.5" cy="126" r="2" fill="white" fill-opacity="0.2"/>
<circle cx="996.5" cy="126" r="2" fill="white" fill-opacity="0.2"/>
<circle cx="1075.5" cy="126" r="2" fill="white" fill-opacity="0.2"/>
<circle cx="1154.5" cy="126" r="2" fill="white" fill-opacity="0.2"/>
<circle cx="1233.5" cy="126" r="2" fill="white" fill-opacity="0.2"/>
<circle cx="1312.5" cy="126" r="2" fill="white" fill-opacity="0.2"/>
<circle cx="1391.5" cy="126" r="2" fill="white" fill-opacity="0.2"/>
<circle cx="48.5" cy="183" r="2" fill="white" fill-opacity="0.2"/>
<circle cx="127.5" cy="183" r="2" fill="white" fill-opacity="0.2"/>
<circle cx="206.5" cy="183" r="2" fill="white" fill-opacity="0.2"/>
<circle cx="285.5" cy="183" r="2" fill="white" fill-opacity="0.2"/>
<circle cx="364.5" cy="183" r="2" fill="white" fill-opacity="0.2"/>
<circle cx="443.5" cy="183" r="2" fill="white" fill-opacity="0.2"/>
<circle cx="522.5" cy="183" r="2" fill="white" fill-opacity="0.2"/>
<circle cx="601.5" cy="183" r="2" fill="white" fill-opacity="0.2"/>
<circle cx="680.5" cy="183" r="2" fill="white" fill-opacity="0.2"/>
<circle cx="759.5" cy="183" r="2" fill="white" fill-opacity="0.2"/>
<circle cx="838.5" cy="183" r="2" fill="white" fill-opacity="0.2"/>
<circle cx="917.5" cy="183" r="2" fill="white" fill-opacity="0.2"/>
<circle cx="996.5" cy="183" r="2" fill="white" fill-opacity="0.2"/>
<circle cx="1075.5" cy="183" r="2" fill="white" fill-opacity="0.2"/>
<circle cx="1154.5" cy="183" r="2" fill="white" fill-opacity="0.2"/>
<circle cx="1233.5" cy="183" r="2" fill="white" fill-opacity="0.2"/>
<circle cx="1312.5" cy="183" r="2" fill="white" fill-opacity="0.2"/>
<circle cx="1391.5" cy="183" r="2" fill="white" fill-opacity="0.2"/>
<circle cx="48.5" cy="240" r="2" fill="white" fill-opacity="0.2"/>
<circle cx="127.5" cy="240" r="2" fill="white" fill-opacity="0.2"/>
<circle cx="206.5" cy="240" r="2" fill="white" fill-opacity="0.2"/>
<circle cx="285.5" cy="240" r="2" fill="white" fill-opacity="0.2"/>
<circle cx="364.5" cy="240" r="2" fill="white" fill-opacity="0.2"/>
<circle cx="443.5" cy="240" r="2" fill="white" fill-opacity="0.2"/>
<circle cx="522.5" cy="240" r="2" fill="white" fill-opacity="0.2"/>
<circle cx="601.5" cy="240" r="2" fill="white" fill-opacity="0.2"/>
<circle cx="680.5" cy="240" r="2" fill="white" fill-opacity="0.2"/>
<circle cx="759.5" cy="240" r="2" fill="white" fill-opacity="0.2"/>
<circle cx="838.5" cy="240" r="2" fill="white" fill-opacity="0.2"/>
<circle cx="917.5" cy="240" r="2" fill="white" fill-opacity="0.2"/>
<circle cx="996.5" cy="240" r="2" fill="white" fill-opacity="0.2"/>
<circle cx="1075.5" cy="240" r="2" fill="white" fill-opacity="0.2"/>
<circle cx="1154.5" cy="240" r="2" fill="white" fill-opacity="0.2"/>
<circle cx="1233.5" cy="240" r="2" fill="white" fill-opacity="0.2"/>
<circle cx="1312.5" cy="240" r="2" fill="white" fill-opacity="0.2"/>
<circle cx="1391.5" cy="240" r="2" fill="white" fill-opacity="0.2"/>
<circle cx="48.5" cy="297" r="2" fill="white" fill-opacity="0.2"/>
<circle cx="127.5" cy="297" r="2" fill="white" fill-opacity="0.2"/>
<circle cx="206.5" cy="297" r="2" fill="white" fill-opacity="0.2"/>
<circle cx="285.5" cy="297" r="2" fill="white" fill-opacity="0.2"/>
<circle cx="364.5" cy="297" r="2" fill="white" fill-opacity="0.2"/>
<circle cx="443.5" cy="297" r="2" fill="white" fill-opacity="0.2"/>
<circle cx="522.5" cy="297" r="2" fill="white" fill-opacity="0.2"/>
<circle cx="601.5" cy="297" r="2" fill="white" fill-opacity="0.2"/>
<circle cx="680.5" cy="297" r="2" fill="white" fill-opacity="0.2"/>
<circle cx="759.5" cy="297" r="2" fill="white" fill-opacity="0.2"/>
<circle cx="838.5" cy="297" r="2" fill="white" fill-opacity="0.2"/>
<circle cx="917.5" cy="297" r="2" fill="white" fill-opacity="0.2"/>
<circle cx="996.5" cy="297" r="2" fill="white" fill-opacity="0.2"/>
<circle cx="1075.5" cy="297" r="2" fill="white" fill-opacity="0.2"/>
<circle cx="1154.5" cy="297" r="2" fill="white" fill-opacity="0.2"/>
<circle cx="1233.5" cy="297" r="2" fill="white" fill-opacity="0.2"/>
<circle cx="1312.5" cy="297" r="2" fill="white" fill-opacity="0.2"/>
<circle cx="1391.5" cy="297" r="2" fill="white" fill-opacity="0.2"/>
<circle cx="48.5" cy="354" r="2" fill="white" fill-opacity="0.2"/>
<circle cx="127.5" cy="354" r="2" fill="white" fill-opacity="0.2"/>
<circle cx="206.5" cy="354" r="2" fill="white" fill-opacity="0.2"/>
<circle cx="285.5" cy="354" r="2" fill="white" fill-opacity="0.2"/>
<circle cx="364.5" cy="354" r="2" fill="white" fill-opacity="0.2"/>
<circle cx="443.5" cy="354" r="2" fill="white" fill-opacity="0.2"/>
<circle cx="522.5" cy="354" r="2" fill="white" fill-opacity="0.2"/>
<circle cx="601.5" cy="354" r="2" fill="white" fill-opacity="0.2"/>
<circle cx="680.5" cy="354" r="2" fill="white" fill-opacity="0.2"/>
<circle cx="759.5" cy="354" r="2" fill="white" fill-opacity="0.2"/>
<circle cx="838.5" cy="354" r="2" fill="white" fill-opacity="0.2"/>
<circle cx="917.5" cy="354" r="2" fill="white" fill-opacity="0.2"/>
<circle cx="996.5" cy="354" r="2" fill="white" fill-opacity="0.2"/>
<circle cx="1075.5" cy="354" r="2" fill="white" fill-opacity="0.2"/>
<circle cx="1154.5" cy="354" r="2" fill="white" fill-opacity="0.2"/>
<circle cx="1233.5" cy="354" r="2" fill="white" fill-opacity="0.2"/>
<circle cx="1312.5" cy="354" r="2" fill="white" fill-opacity="0.2"/>
<circle cx="1391.5" cy="354" r="2" fill="white" fill-opacity="0.2"/>
<circle cx="48.5" cy="411" r="2" fill="white" fill-opacity="0.2"/>
<circle cx="127.5" cy="411" r="2" fill="white" fill-opacity="0.2"/>
<circle cx="206.5" cy="411" r="2" fill="white" fill-opacity="0.2"/>
<circle cx="285.5" cy="411" r="2" fill="white" fill-opacity="0.2"/>
<circle cx="364.5" cy="411" r="2" fill="white" fill-opacity="0.2"/>
<circle cx="443.5" cy="411" r="2" fill="white" fill-opacity="0.2"/>
<circle cx="522.5" cy="411" r="2" fill="white" fill-opacity="0.2"/>
<circle cx="601.5" cy="411" r="2" fill="white" fill-opacity="0.2"/>
<circle cx="680.5" cy="411" r="2" fill="white" fill-opacity="0.2"/>
<circle cx="759.5" cy="411" r="2" fill="white" fill-opacity="0.2"/>
<circle cx="838.5" cy="411" r="2" fill="white" fill-opacity="0.2"/>
<circle cx="917.5" cy="411" r="2" fill="white" fill-opacity="0.2"/>
<circle cx="996.5" cy="411" r="2" fill="white" fill-opacity="0.2"/>
<circle cx="1075.5" cy="411" r="2" fill="white" fill-opacity="0.2"/>
<circle cx="1154.5" cy="411" r="2" fill="white" fill-opacity="0.2"/>
<circle cx="1233.5" cy="411" r="2" fill="white" fill-opacity="0.2"/>
<circle cx="1312.5" cy="411" r="2" fill="white" fill-opacity="0.2"/>
<circle cx="1391.5" cy="411" r="2" fill="white" fill-opacity="0.2"/>
<circle cx="48.5" cy="468" r="2" fill="white" fill-opacity="0.2"/>
<circle cx="127.5" cy="468" r="2" fill="white" fill-opacity="0.2"/>
<circle cx="206.5" cy="468" r="2" fill="white" fill-opacity="0.2"/>
<circle cx="285.5" cy="468" r="2" fill="white" fill-opacity="0.2"/>
<circle cx="364.5" cy="468" r="2" fill="white" fill-opacity="0.2"/>
<circle cx="443.5" cy="468" r="2" fill="white" fill-opacity="0.2"/>
<circle cx="522.5" cy="468" r="2" fill="white" fill-opacity="0.2"/>
<circle cx="601.5" cy="468" r="2" fill="white" fill-opacity="0.2"/>
<circle cx="680.5" cy="468" r="2" fill="white" fill-opacity="0.2"/>
<circle cx="759.5" cy="468" r="2" fill="white" fill-opacity="0.2"/>
<circle cx="838.5" cy="468" r="2" fill="white" fill-opacity="0.2"/>
<circle cx="917.5" cy="468" r="2" fill="white" fill-opacity="0.2"/>
<circle cx="996.5" cy="468" r="2" fill="white" fill-opacity="0.2"/>
<circle cx="1075.5" cy="468" r="2" fill="white" fill-opacity="0.2"/>
<circle cx="1154.5" cy="468" r="2" fill="white" fill-opacity="0.2"/>
<circle cx="1233.5" cy="468" r="2" fill="white" fill-opacity="0.2"/>
<circle cx="1312.5" cy="468" r="2" fill="white" fill-opacity="0.2"/>
<circle cx="1391.5" cy="468" r="2" fill="white" fill-opacity="0.2"/>
<circle cx="48.5" cy="525" r="2" fill="white" fill-opacity="0.2"/>
<circle cx="127.5" cy="525" r="2" fill="white" fill-opacity="0.2"/>
<circle cx="206.5" cy="525" r="2" fill="white" fill-opacity="0.2"/>
<circle cx="285.5" cy="525" r="2" fill="white" fill-opacity="0.2"/>
<circle cx="364.5" cy="525" r="2" fill="white" fill-opacity="0.2"/>
<circle cx="443.5" cy="525" r="2" fill="white" fill-opacity="0.2"/>
<circle cx="522.5" cy="525" r="2" fill="white" fill-opacity="0.2"/>
<circle cx="601.5" cy="525" r="2" fill="white" fill-opacity="0.2"/>
<circle cx="680.5" cy="525" r="2" fill="white" fill-opacity="0.2"/>
<circle cx="759.5" cy="525" r="2" fill="white" fill-opacity="0.2"/>
<circle cx="838.5" cy="525" r="2" fill="white" fill-opacity="0.2"/>
<circle cx="917.5" cy="525" r="2" fill="white" fill-opacity="0.2"/>
<circle cx="996.5" cy="525" r="2" fill="white" fill-opacity="0.2"/>
<circle cx="1075.5" cy="525" r="2" fill="white" fill-opacity="0.2"/>
<circle cx="1154.5" cy="525" r="2" fill="white" fill-opacity="0.2"/>
<circle cx="1233.5" cy="525" r="2" fill="white" fill-opacity="0.2"/>
<circle cx="1312.5" cy="525" r="2" fill="white" fill-opacity="0.2"/>
<circle cx="1391.5" cy="525" r="2" fill="white" fill-opacity="0.2"/>
<circle cx="48.5" cy="582" r="2" fill="white" fill-opacity="0.2"/>
<circle cx="127.5" cy="582" r="2" fill="white" fill-opacity="0.2"/>
<circle cx="206.5" cy="582" r="2" fill="white" fill-opacity="0.2"/>
<circle cx="285.5" cy="582" r="2" fill="white" fill-opacity="0.2"/>
<circle cx="364.5" cy="582" r="2" fill="white" fill-opacity="0.2"/>
<circle cx="443.5" cy="582" r="2" fill="white" fill-opacity="0.2"/>
<circle cx="522.5" cy="582" r="2" fill="white" fill-opacity="0.2"/>
<circle cx="601.5" cy="582" r="2" fill="white" fill-opacity="0.2"/>
<circle cx="680.5" cy="582" r="2" fill="white" fill-opacity="0.2"/>
<circle cx="759.5" cy="582" r="2" fill="white" fill-opacity="0.2"/>
<circle cx="838.5" cy="582" r="2" fill="white" fill-opacity="0.2"/>
<circle cx="917.5" cy="582" r="2" fill="white" fill-opacity="0.2"/>
<circle cx="996.5" cy="582" r="2" fill="white" fill-opacity="0.2"/>
<circle cx="1075.5" cy="582" r="2" fill="white" fill-opacity="0.2"/>
<circle cx="1154.5" cy="582" r="2" fill="white" fill-opacity="0.2"/>
<circle cx="1233.5" cy="582" r="2" fill="white" fill-opacity="0.2"/>
<circle cx="1312.5" cy="582" r="2" fill="white" fill-opacity="0.2"/>
<circle cx="1391.5" cy="582" r="2" fill="white" fill-opacity="0.2"/>
<circle cx="48.5" cy="639" r="2" fill="white" fill-opacity="0.2"/>
<circle cx="127.5" cy="639" r="2" fill="white" fill-opacity="0.2"/>
<circle cx="206.5" cy="639" r="2" fill="white" fill-opacity="0.2"/>
<circle cx="285.5" cy="639" r="2" fill="white" fill-opacity="0.2"/>
<circle cx="364.5" cy="639" r="2" fill="white" fill-opacity="0.2"/>
<circle cx="443.5" cy="639" r="2" fill="white" fill-opacity="0.2"/>
<circle cx="522.5" cy="639" r="2" fill="white" fill-opacity="0.2"/>
<circle cx="601.5" cy="639" r="2" fill="white" fill-opacity="0.2"/>
<circle cx="680.5" cy="639" r="2" fill="white" fill-opacity="0.2"/>
<circle cx="759.5" cy="639" r="2" fill="white" fill-opacity="0.2"/>
<circle cx="838.5" cy="639" r="2" fill="white" fill-opacity="0.2"/>
<circle cx="917.5" cy="639" r="2" fill="white" fill-opacity="0.2"/>
<circle cx="996.5" cy="639" r="2" fill="white" fill-opacity="0.2"/>
<circle cx="1075.5" cy="639" r="2" fill="white" fill-opacity="0.2"/>
<circle cx="1154.5" cy="639" r="2" fill="white" fill-opacity="0.2"/>
<circle cx="1233.5" cy="639" r="2" fill="white" fill-opacity="0.2"/>
<circle cx="1312.5" cy="639" r="2" fill="white" fill-opacity="0.2"/>
<circle cx="1391.5" cy="639" r="2" fill="white" fill-opacity="0.2"/>
<circle cx="48.5" cy="696" r="2" fill="white" fill-opacity="0.2"/>
<circle cx="127.5" cy="696" r="2" fill="white" fill-opacity="0.2"/>
<circle cx="206.5" cy="696" r="2" fill="white" fill-opacity="0.2"/>
<circle cx="285.5" cy="696" r="2" fill="white" fill-opacity="0.2"/>
<circle cx="364.5" cy="696" r="2" fill="white" fill-opacity="0.2"/>
<circle cx="443.5" cy="696" r="2" fill="white" fill-opacity="0.2"/>
<circle cx="522.5" cy="696" r="2" fill="white" fill-opacity="0.2"/>
<circle cx="601.5" cy="696" r="2" fill="white" fill-opacity="0.2"/>
<circle cx="680.5" cy="696" r="2" fill="white" fill-opacity="0.2"/>
<circle cx="759.5" cy="696" r="2" fill="white" fill-opacity="0.2"/>
<circle cx="838.5" cy="696" r="2" fill="white" fill-opacity="0.2"/>
<circle cx="917.5" cy="696" r="2" fill="white" fill-opacity="0.2"/>
<circle cx="996.5" cy="696" r="2" fill="white" fill-opacity="0.2"/>
<circle cx="1075.5" cy="696" r="2" fill="white" fill-opacity="0.2"/>
<circle cx="1154.5" cy="696" r="2" fill="white" fill-opacity="0.2"/>
<circle cx="1233.5" cy="696" r="2" fill="white" fill-opacity="0.2"/>
<circle cx="1312.5" cy="696" r="2" fill="white" fill-opacity="0.2"/>
<circle cx="1391.5" cy="696" r="2" fill="white" fill-opacity="0.2"/>
<circle cx="48.5" cy="753" r="2" fill="white" fill-opacity="0.2"/>
<circle cx="127.5" cy="753" r="2" fill="white" fill-opacity="0.2"/>
<circle cx="206.5" cy="753" r="2" fill="white" fill-opacity="0.2"/>
<circle cx="285.5" cy="753" r="2" fill="white" fill-opacity="0.2"/>
<circle cx="364.5" cy="753" r="2" fill="white" fill-opacity="0.2"/>
<circle cx="443.5" cy="753" r="2" fill="white" fill-opacity="0.2"/>
<circle cx="522.5" cy="753" r="2" fill="white" fill-opacity="0.2"/>
<circle cx="601.5" cy="753" r="2" fill="white" fill-opacity="0.2"/>
<circle cx="680.5" cy="753" r="2" fill="white" fill-opacity="0.2"/>
<circle cx="759.5" cy="753" r="2" fill="white" fill-opacity="0.2"/>
<circle cx="838.5" cy="753" r="2" fill="white" fill-opacity="0.2"/>
<circle cx="917.5" cy="753" r="2" fill="white" fill-opacity="0.2"/>
<circle cx="996.5" cy="753" r="2" fill="white" fill-opacity="0.2"/>
<circle cx="1075.5" cy="753" r="2" fill="white" fill-opacity="0.2"/>
<circle cx="1154.5" cy="753" r="2" fill="white" fill-opacity="0.2"/>
<circle cx="1233.5" cy="753" r="2" fill="white" fill-opacity="0.2"/>
<circle cx="1312.5" cy="753" r="2" fill="white" fill-opacity="0.2"/>
<circle cx="1391.5" cy="753" r="2" fill="white" fill-opacity="0.2"/>
<circle cx="48.5" cy="810" r="2" fill="white" fill-opacity="0.2"/>
<circle cx="127.5" cy="810" r="2" fill="white" fill-opacity="0.2"/>
<circle cx="206.5" cy="810" r="2" fill="white" fill-opacity="0.2"/>
<circle cx="285.5" cy="810" r="2" fill="white" fill-opacity="0.2"/>
<circle cx="364.5" cy="810" r="2" fill="white" fill-opacity="0.2"/>
<circle cx="443.5" cy="810" r="2" fill="white" fill-opacity="0.2"/>
<circle cx="522.5" cy="810" r="2" fill="white" fill-opacity="0.2"/>
<circle cx="601.5" cy="810" r="2" fill="white" fill-opacity="0.2"/>
<circle cx="680.5" cy="810" r="2" fill="white" fill-opacity="0.2"/>
<circle cx="759.5" cy="810" r="2" fill="white" fill-opacity="0.2"/>
<circle cx="838.5" cy="810" r="2" fill="white" fill-opacity="0.2"/>
<circle cx="917.5" cy="810" r="2" fill="white" fill-opacity="0.2"/>
<circle cx="996.5" cy="810" r="2" fill="white" fill-opacity="0.2"/>
<circle cx="1075.5" cy="810" r="2" fill="white" fill-opacity="0.2"/>
<circle cx="1154.5" cy="810" r="2" fill="white" fill-opacity="0.2"/>
<circle cx="1233.5" cy="810" r="2" fill="white" fill-opacity="0.2"/>
<circle cx="1312.5" cy="810" r="2" fill="white" fill-opacity="0.2"/>
<circle cx="1391.5" cy="810" r="2" fill="white" fill-opacity="0.2"/>
<circle cx="48.5" cy="867" r="2" fill="white" fill-opacity="0.2"/>
<circle cx="127.5" cy="867" r="2" fill="white" fill-opacity="0.2"/>
<circle cx="206.5" cy="867" r="2" fill="white" fill-opacity="0.2"/>
<circle cx="285.5" cy="867" r="2" fill="white" fill-opacity="0.2"/>
<circle cx="364.5" cy="867" r="2" fill="white" fill-opacity="0.2"/>
<circle cx="443.5" cy="867" r="2" fill="white" fill-opacity="0.2"/>
<circle cx="522.5" cy="867" r="2" fill="white" fill-opacity="0.2"/>
<circle cx="601.5" cy="867" r="2" fill="white" fill-opacity="0.2"/>
<circle cx="680.5" cy="867" r="2" fill="white" fill-opacity="0.2"/>
<circle cx="759.5" cy="867" r="2" fill="white" fill-opacity="0.2"/>
<circle cx="838.5" cy="867" r="2" fill="white" fill-opacity="0.2"/>
<circle cx="917.5" cy="867" r="2" fill="white" fill-opacity="0.2"/>
<circle cx="996.5" cy="867" r="2" fill="white" fill-opacity="0.2"/>
<circle cx="1075.5" cy="867" r="2" fill="white" fill-opacity="0.2"/>
<circle cx="1154.5" cy="867" r="2" fill="white" fill-opacity="0.2"/>
<circle cx="1233.5" cy="867" r="2" fill="white" fill-opacity="0.2"/>
<circle cx="1312.5" cy="867" r="2" fill="white" fill-opacity="0.2"/>
<circle cx="1391.5" cy="867" r="2" fill="white" fill-opacity="0.2"/>
<circle cx="48.5" cy="924" r="2" fill="white" fill-opacity="0.2"/>
<circle cx="127.5" cy="924" r="2" fill="white" fill-opacity="0.2"/>
<circle cx="206.5" cy="924" r="2" fill="white" fill-opacity="0.2"/>
<circle cx="285.5" cy="924" r="2" fill="white" fill-opacity="0.2"/>
<circle cx="364.5" cy="924" r="2" fill="white" fill-opacity="0.2"/>
<circle cx="443.5" cy="924" r="2" fill="white" fill-opacity="0.2"/>
<circle cx="522.5" cy="924" r="2" fill="white" fill-opacity="0.2"/>
<circle cx="601.5" cy="924" r="2" fill="white" fill-opacity="0.2"/>
<circle cx="680.5" cy="924" r="2" fill="white" fill-opacity="0.2"/>
<circle cx="759.5" cy="924" r="2" fill="white" fill-opacity="0.2"/>
<circle cx="838.5" cy="924" r="2" fill="white" fill-opacity="0.2"/>
<circle cx="917.5" cy="924" r="2" fill="white" fill-opacity="0.2"/>
<circle cx="996.5" cy="924" r="2" fill="white" fill-opacity="0.2"/>
<circle cx="1075.5" cy="924" r="2" fill="white" fill-opacity="0.2"/>
<circle cx="1154.5" cy="924" r="2" fill="white" fill-opacity="0.2"/>
<circle cx="1233.5" cy="924" r="2" fill="white" fill-opacity="0.2"/>
<circle cx="1312.5" cy="924" r="2" fill="white" fill-opacity="0.2"/>
<circle cx="1391.5" cy="924" r="2" fill="white" fill-opacity="0.2"/>
</g>
<defs>
<linearGradient id="paint0_linear_307_4769" x1="720" y1="0.5" x2="720" y2="935.5" gradientUnits="userSpaceOnUse">
<stop stop-color="#041521"/>
<stop offset="1" stop-color="#0A1C2E"/>
</linearGradient>
<clipPath id="clip0_307_4769">
<rect y="0.5" width="1440" height="935" fill="white"/>
</clipPath>
</defs>
</svg>
