<svg width="57" height="57" viewBox="0 0 57 57" fill="none" xmlns="http://www.w3.org/2000/svg">
<g filter="url(#filter0_d_189_1838)">
<rect width="48" height="48" rx="24" transform="matrix(1 0 0 -1 4.99774 52.2542)" fill="url(#paint0_linear_189_1838)"/>
<rect x="0.25" y="-0.25" width="35.5" height="35.5" rx="17.75" transform="matrix(1 0 0 -1 10.9977 45.7542)" fill="url(#paint1_linear_189_1838)"/>
<rect x="0.25" y="-0.25" width="35.5" height="35.5" rx="17.75" transform="matrix(1 0 0 -1 10.9977 45.7542)" stroke="url(#paint2_linear_189_1838)" stroke-width="0.5" stroke-linecap="round"/>
<rect x="0.5" y="-0.5" width="47" height="47" rx="23.5" transform="matrix(1 0 0 -1 4.99774 51.2542)" stroke="white" stroke-opacity="0.5" stroke-linecap="round" stroke-dasharray="16 16"/>
</g>
<defs>
<filter id="filter0_d_189_1838" x="0.997742" y="0.25415" width="56" height="56" filterUnits="userSpaceOnUse" color-interpolation-filters="sRGB">
<feFlood flood-opacity="0" result="BackgroundImageFix"/>
<feColorMatrix in="SourceAlpha" type="matrix" values="0 0 0 0 0 0 0 0 0 0 0 0 0 0 0 0 0 0 127 0" result="hardAlpha"/>
<feOffset/>
<feGaussianBlur stdDeviation="2"/>
<feComposite in2="hardAlpha" operator="out"/>
<feColorMatrix type="matrix" values="0 0 0 0 0.203875 0 0 0 0 0.648711 0 0 0 0 0.970833 0 0 0 1 0"/>
<feBlend mode="normal" in2="BackgroundImageFix" result="effect1_dropShadow_189_1838"/>
<feBlend mode="normal" in="SourceGraphic" in2="effect1_dropShadow_189_1838" result="shape"/>
</filter>
<linearGradient id="paint0_linear_189_1838" x1="24" y1="0" x2="24" y2="48" gradientUnits="userSpaceOnUse">
<stop stop-color="#82A5FF"/>
<stop offset="1" stop-color="#4764FF"/>
</linearGradient>
<linearGradient id="paint1_linear_189_1838" x1="18" y1="0" x2="18" y2="36" gradientUnits="userSpaceOnUse">
<stop stop-color="white" stop-opacity="0.04"/>
<stop offset="1" stop-color="#FCF5FF"/>
</linearGradient>
<linearGradient id="paint2_linear_189_1838" x1="18" y1="0" x2="18" y2="36" gradientUnits="userSpaceOnUse">
<stop stop-color="white"/>
<stop offset="1" stop-color="white" stop-opacity="0"/>
</linearGradient>
</defs>
</svg>
