<svg width="579" height="585" viewBox="0 0 579 585" fill="none" xmlns="http://www.w3.org/2000/svg">
<path d="M555.878 210.126L547.041 226.148L547.041 329.848L555.97 341.119C556.559 341.861 557.754 341.445 557.754 340.498L557.754 210.609C557.754 209.575 556.377 209.221 555.878 210.126Z" fill="#FFE399"/>
<g filter="url(#filter0_bdd_311_4446)">
<path fill-rule="evenodd" clip-rule="evenodd" d="M40.4402 217.041V57.4399C40.4402 47.5168 47.0832 38.822 56.6573 36.2136L105.507 22.9048L117.029 34.4042H190.615C205.872 34.4042 220.867 30.4417 234.131 22.9048H353.756C364.675 30.3952 377.606 34.4042 390.847 34.4042H509.464L526.07 26.2869C537.861 26.2869 547.42 35.8457 547.42 47.6371V204.104L536.827 223.805V329.921L547.42 343.788V504.525L551.997 512.472C552.728 513.742 552.435 515.354 551.304 516.285L530.589 533.345C527.724 535.704 524.128 536.994 520.417 536.994L402.98 536.994L386.035 553.905H191.382L174.438 536.994H63.4402C50.7377 536.994 40.4402 526.697 40.4402 513.994V334.064L27.1367 308.265V245.451L40.4402 217.041ZM347.51 30.0667L353.668 34.78C355.946 36.5232 354.713 40.1623 351.845 40.1623L231.594 40.1623C228.478 40.1623 227.428 35.9991 230.171 34.5211L238.921 29.8078C239.358 29.5723 239.847 29.449 240.343 29.449L345.686 29.449C346.345 29.449 346.986 29.6661 347.51 30.0667Z" fill="#FFE399" shape-rendering="crispEdges"/>
<path d="M40.4402 217.041L40.8931 217.253C40.9241 217.187 40.9402 217.114 40.9402 217.041H40.4402ZM56.6573 36.2136L56.7887 36.696L56.6573 36.2136ZM105.507 22.9048L105.86 22.5509C105.733 22.4243 105.549 22.3753 105.376 22.4224L105.507 22.9048ZM117.029 34.4042L116.676 34.7581C116.77 34.8516 116.897 34.9042 117.029 34.9042V34.4042ZM234.131 22.9048V22.4048C234.045 22.4048 233.96 22.4273 233.884 22.4701L234.131 22.9048ZM353.756 22.9048L354.039 22.4925C353.956 22.4354 353.857 22.4048 353.756 22.4048V22.9048ZM509.464 34.4042V34.9042C509.54 34.9042 509.615 34.8868 509.684 34.8534L509.464 34.4042ZM526.07 26.2869V25.7869C525.994 25.7869 525.919 25.8043 525.85 25.8377L526.07 26.2869ZM547.42 204.104L547.86 204.341C547.9 204.268 547.92 204.187 547.92 204.104H547.42ZM536.827 223.805L536.387 223.569C536.348 223.641 536.327 223.723 536.327 223.805H536.827ZM536.827 329.921H536.327C536.327 330.031 536.363 330.137 536.43 330.225L536.827 329.921ZM547.42 343.788H547.92C547.92 343.678 547.884 343.572 547.817 343.484L547.42 343.788ZM547.42 504.525H546.92C546.92 504.613 546.943 504.699 546.987 504.775L547.42 504.525ZM551.997 512.472L552.43 512.223L552.43 512.223L551.997 512.472ZM551.304 516.285L550.986 515.899L550.986 515.899L551.304 516.285ZM530.589 533.345L530.906 533.731L530.906 533.731L530.589 533.345ZM520.417 536.994L520.417 537.494H520.417V536.994ZM402.98 536.994L402.98 536.494C402.847 536.494 402.72 536.546 402.627 536.64L402.98 536.994ZM386.035 553.905V554.405C386.168 554.405 386.295 554.352 386.389 554.259L386.035 553.905ZM191.382 553.905L191.029 554.259C191.123 554.352 191.25 554.405 191.382 554.405V553.905ZM174.438 536.994L174.791 536.64C174.697 536.546 174.57 536.494 174.438 536.494V536.994ZM40.4402 334.064H40.9402C40.9402 333.984 40.9212 333.906 40.8846 333.835L40.4402 334.064ZM27.1367 308.265H26.6367C26.6367 308.345 26.6558 308.424 26.6923 308.494L27.1367 308.265ZM27.1367 245.451L26.6839 245.239C26.6528 245.306 26.6367 245.378 26.6367 245.451H27.1367ZM353.668 34.78L353.972 34.3829L353.972 34.3829L353.668 34.78ZM347.51 30.0667L347.206 30.4637L347.206 30.4637L347.51 30.0667ZM351.845 40.1623L351.845 40.6623H351.845V40.1623ZM231.594 40.1623L231.594 39.6623H231.594V40.1623ZM230.171 34.5211L229.934 34.0809L229.934 34.0809L230.171 34.5211ZM238.921 29.8078L238.683 29.3677L238.683 29.3677L238.921 29.8078ZM240.343 29.449L240.343 28.949H240.343V29.449ZM345.686 29.449L345.686 28.949L345.686 28.949L345.686 29.449ZM39.9402 57.4399V217.041H40.9402V57.4399H39.9402ZM56.5258 35.7312C46.7341 38.3989 39.9402 47.2913 39.9402 57.4399H40.9402C40.9402 47.7424 47.4322 39.2451 56.7887 36.696L56.5258 35.7312ZM105.376 22.4224L56.5258 35.7312L56.7887 36.696L105.638 23.3872L105.376 22.4224ZM117.383 34.0503L105.86 22.5509L105.154 23.2587L116.676 34.7581L117.383 34.0503ZM190.615 33.9042H117.029V34.9042H190.615V33.9042ZM233.884 22.4701C220.695 29.9642 205.785 33.9042 190.615 33.9042V34.9042C205.958 34.9042 221.038 30.9192 234.378 23.3395L233.884 22.4701ZM353.756 22.4048H234.131V23.4048H353.756V22.4048ZM390.847 33.9042C377.707 33.9042 364.875 29.9257 354.039 22.4925L353.473 23.3171C364.476 30.8646 377.505 34.9042 390.847 34.9042V33.9042ZM509.464 33.9042H390.847V34.9042H509.464V33.9042ZM525.85 25.8377L509.245 33.955L509.684 34.8534L526.289 26.7362L525.85 25.8377ZM547.92 47.6371C547.92 35.5696 538.137 25.7869 526.07 25.7869V26.7869C537.585 26.7869 546.92 36.1219 546.92 47.6371H547.92ZM547.92 204.104V47.6371H546.92V204.104H547.92ZM537.268 224.042L547.86 204.341L546.98 203.868L536.387 223.569L537.268 224.042ZM537.327 329.921V223.805H536.327V329.921H537.327ZM547.817 343.484L537.225 329.618L536.43 330.225L547.023 344.092L547.817 343.484ZM547.92 504.525V343.788H546.92V504.525H547.92ZM552.43 512.223L547.853 504.276L546.987 504.775L551.564 512.722L552.43 512.223ZM551.622 516.671C552.941 515.585 553.283 513.704 552.43 512.223L551.564 512.722C552.173 513.78 551.929 515.123 550.986 515.899L551.622 516.671ZM530.906 533.731L551.622 516.671L550.986 515.899L530.271 532.959L530.906 533.731ZM520.417 537.494C524.244 537.494 527.952 536.164 530.906 533.731L530.271 532.959C527.496 535.244 524.012 536.494 520.417 536.494V537.494ZM402.98 537.494L520.417 537.494L520.417 536.494L402.98 536.494L402.98 537.494ZM386.389 554.259L403.333 537.348L402.627 536.64L385.682 553.551L386.389 554.259ZM191.382 554.405H386.035V553.405H191.382V554.405ZM174.084 537.348L191.029 554.259L191.735 553.551L174.791 536.64L174.084 537.348ZM63.4402 537.494H174.438V536.494H63.4402V537.494ZM39.9402 513.994C39.9402 526.973 50.4615 537.494 63.4402 537.494V536.494C51.0138 536.494 40.9402 526.42 40.9402 513.994H39.9402ZM39.9402 334.064V513.994H40.9402V334.064H39.9402ZM26.6923 308.494L39.9959 334.293L40.8846 333.835L27.5811 308.036L26.6923 308.494ZM26.6367 245.451V308.265H27.6367V245.451H26.6367ZM39.9874 216.829L26.6839 245.239L27.5895 245.663L40.8931 217.253L39.9874 216.829ZM353.972 34.3829L347.814 29.6696L347.206 30.4637L353.364 35.177L353.972 34.3829ZM351.845 40.6623C355.191 40.6623 356.629 36.4167 353.972 34.3829L353.364 35.177C355.262 36.6297 354.235 39.6623 351.845 39.6623V40.6623ZM231.594 40.6623L351.845 40.6623L351.845 39.6623L231.594 39.6623L231.594 40.6623ZM229.934 34.0809C226.733 35.8053 227.958 40.6623 231.594 40.6623V39.6623C228.997 39.6623 228.122 36.193 230.409 34.9613L229.934 34.0809ZM238.683 29.3677L229.934 34.0809L230.409 34.9613L239.158 30.248L238.683 29.3677ZM240.343 28.949C239.764 28.949 239.194 29.0928 238.683 29.3677L239.158 30.248C239.522 30.0517 239.929 29.949 240.343 29.949V28.949ZM345.686 28.949L240.343 28.949L240.343 29.949L345.686 29.949L345.686 28.949ZM347.814 29.6696C347.203 29.2022 346.455 28.949 345.686 28.949L345.686 29.949C346.236 29.949 346.77 30.1299 347.206 30.4637L347.814 29.6696Z" fill="url(#paint0_linear_311_4446)"/>
</g>
<g filter="url(#filter1_i_311_4446)">
<rect width="488" height="488" rx="19" transform="matrix(-0.999994 0.00359933 0.00359933 0.999994 532.887 43.5281)" fill="#47A7FF" fill-opacity="0.17"/>
<rect x="0.498197" y="-0.501796" width="489" height="489" rx="19.5" transform="matrix(-0.999994 0.00359933 0.00359933 0.999994 533.885 43.5263)" stroke="url(#paint1_linear_311_4446)"/>
</g>
<defs>
<filter id="filter0_bdd_311_4446" x="0.636688" y="0.404785" width="578.261" height="584" filterUnits="userSpaceOnUse" color-interpolation-filters="sRGB">
<feFlood flood-opacity="0" result="BackgroundImageFix"/>
<feGaussianBlur in="BackgroundImageFix" stdDeviation="2"/>
<feComposite in2="SourceAlpha" operator="in" result="effect1_backgroundBlur_311_4446"/>
<feColorMatrix in="SourceAlpha" type="matrix" values="0 0 0 0 0 0 0 0 0 0 0 0 0 0 0 0 0 0 127 0" result="hardAlpha"/>
<feOffset dy="4"/>
<feGaussianBlur stdDeviation="13"/>
<feComposite in2="hardAlpha" operator="out"/>
<feColorMatrix type="matrix" values="0 0 0 0 0 0 0 0 0 0 0 0 0 0 0 0 0 0 0.25 0"/>
<feBlend mode="normal" in2="effect1_backgroundBlur_311_4446" result="effect2_dropShadow_311_4446"/>
<feColorMatrix in="SourceAlpha" type="matrix" values="0 0 0 0 0 0 0 0 0 0 0 0 0 0 0 0 0 0 127 0" result="hardAlpha"/>
<feOffset/>
<feGaussianBlur stdDeviation="3"/>
<feComposite in2="hardAlpha" operator="out"/>
<feColorMatrix type="matrix" values="0 0 0 0 1 0 0 0 0 0.790717 0 0 0 0 0.639167 0 0 0 0.44 0"/>
<feBlend mode="normal" in2="effect2_dropShadow_311_4446" result="effect3_dropShadow_311_4446"/>
<feBlend mode="normal" in="SourceGraphic" in2="effect3_dropShadow_311_4446" result="shape"/>
</filter>
<filter id="filter1_i_311_4446" x="43.9585" y="42.5963" width="491.617" height="495.617" filterUnits="userSpaceOnUse" color-interpolation-filters="sRGB">
<feFlood flood-opacity="0" result="BackgroundImageFix"/>
<feBlend mode="normal" in="SourceGraphic" in2="BackgroundImageFix" result="shape"/>
<feColorMatrix in="SourceAlpha" type="matrix" values="0 0 0 0 0 0 0 0 0 0 0 0 0 0 0 0 0 0 127 0" result="hardAlpha"/>
<feOffset dy="4"/>
<feGaussianBlur stdDeviation="5.5"/>
<feComposite in2="hardAlpha" operator="arithmetic" k2="-1" k3="1"/>
<feColorMatrix type="matrix" values="0 0 0 0 0 0 0 0 0 0 0 0 0 0 0 0 0 0 0.25 0"/>
<feBlend mode="normal" in2="shape" result="effect1_innerShadow_311_4446"/>
</filter>
<linearGradient id="paint0_linear_311_4446" x1="290.18" y1="22.9048" x2="290.18" y2="561.014" gradientUnits="userSpaceOnUse">
<stop stop-color="#FFCAA3" stop-opacity="0.7"/>
<stop offset="1" stop-color="#FF9F98"/>
</linearGradient>
<linearGradient id="paint1_linear_311_4446" x1="244" y1="0" x2="244" y2="488" gradientUnits="userSpaceOnUse">
<stop stop-color="#9CD5FF"/>
<stop offset="1" stop-color="#47A7FF"/>
</linearGradient>
</defs>
</svg>
